<?xml version="1.0" encoding="utf-8"?>
<!-- Generator: Adobe Illustrator 18.1.0, SVG Export Plug-In . SVG Version: 6.00 Build 0)  -->
<svg version="1.1" id="Слой_1" xmlns="http://www.w3.org/2000/svg" xmlns:xlink="http://www.w3.org/1999/xlink" x="0px" y="0px"
	 viewBox="0 0 84.1 42" style="enable-background:new 0 0 84.1 42;" xml:space="preserve">
<style type="text/css">
	.st0{fill:#FFFFFF;}
	.st1{fill:#012169;}
	.st2{fill:#C8102E;}
</style>
<g>
	<path class="st0" d="M37.8,0c0,0.1,0,0.2,0,0.3c0,5.4,0,10.7,0,16.1c0,0.1,0,0.2,0,0.4c-0.1,0-0.2,0-0.3,0c-12.4,0-24.8,0-37.2,0
		c-0.1,0-0.2,0-0.2,0c0-0.9,0-1.9,0-2.8c0.2,0,0.3,0,0.5,0c5.9,0,11.8,0,17.6,0c0.1,0,0.2,0,0.4,0c-0.1-0.1-0.2-0.2-0.3-0.2
		C14.1,11.7,10,9.7,5.9,7.6c-2-1-3.9-2-5.9-2.9c0-0.5,0-1,0-1.5c0.1,0.1,0.3,0.1,0.4,0.2c7,3.5,14,7,21,10.5
		c0.2,0.1,0.5,0.2,0.7,0.2c1.8,0,3.6,0,5.4,0c0.1,0,0.2,0,0.3,0c-0.1-0.1-0.2-0.2-0.3-0.2c-9-4.5-18.1-9-27.1-13.6
		C0.3,0.2,0.2,0.1,0.1,0c3.1,0,6.3,0,9.4,0c0.1,0,0.2,0.1,0.2,0.1c8.3,4.2,16.7,8.3,25,12.5c0.1,0,0.2,0.1,0.3,0.1
		c0-0.3,0-0.5,0-0.7c0-4,0-8.1,0-12.1C36,0,36.9,0,37.8,0z"/>
	<path class="st0" d="M46.2,42c0-0.1,0-0.2,0-0.3c0-5.4,0-10.7,0-16.1c0-0.1,0-0.2,0-0.4c0.1,0,0.2,0,0.3,0c12.4,0,24.8,0,37.2,0
		c0.1,0,0.2,0,0.2,0c0,0.9,0,1.9,0,2.8c-0.2,0-0.3,0-0.5,0c-5.9,0-11.8,0-17.6,0c-0.1,0-0.2,0-0.3,0c0.1,0.1,0.2,0.2,0.3,0.2
		c4.5,2.2,9,4.5,13.5,6.7c1.6,0.8,3.1,1.6,4.7,2.4c0,0.5,0,1,0,1.5c-0.1-0.1-0.3-0.1-0.4-0.2c-7-3.5-14-7-21-10.5
		c-0.2-0.1-0.5-0.2-0.7-0.2c-1.8,0-3.6,0-5.4,0c-0.1,0-0.2,0-0.4,0c0.2,0.1,0.3,0.1,0.4,0.2c9,4.5,18.1,9,27.1,13.6
		c0.1,0.1,0.2,0.1,0.3,0.2c-3.1,0-6.3,0-9.4,0c-0.1,0-0.1-0.1-0.2-0.1c-8.4-4.2-16.7-8.4-25.1-12.6c-0.1,0-0.2-0.1-0.3-0.1
		c0,0.3,0,0.5,0,0.7c0,4,0,8,0,12C48.1,42,47.2,42,46.2,42z"/>
	<path class="st0" d="M84.1,16.8c-0.1,0-0.3,0-0.4,0c-12.3,0-24.6,0-36.9,0c-0.1,0-0.3,0-0.5,0c0-0.1,0-0.2,0-0.3
		c0-5.4,0-10.9,0-16.3c0-0.1,0-0.1,0-0.2c0.9,0,1.9,0,2.8,0c0,4.2,0,8.5,0,12.8c0.2-0.1,0.3-0.1,0.4-0.2C56,9.3,62.7,6,69.3,2.7
		C71,1.8,72.8,0.9,74.6,0c1.1,0,2.1,0,3.2,0c-0.1,0.1-0.2,0.2-0.4,0.2c-9,4.5-18.1,9-27.1,13.5c-0.1,0.1-0.2,0.1-0.4,0.2
		c0,0,0,0,0,0.1c0.1,0,0.2,0,0.3,0c1.8,0,3.5,0,5.3,0c0.2,0,0.5-0.1,0.7-0.2c7.4-3.7,14.8-7.4,22.2-11.1C80.4,1.8,82.2,0.9,84,0
		c0,0.1,0.1,0.2,0.1,0.3c0,1.5,0,2.9,0,4.4c-0.1,0.1-0.3,0.1-0.4,0.2c-5.9,3-11.8,5.9-17.8,8.9c-0.1,0-0.2,0.1-0.4,0.2
		c0.2,0,0.3,0,0.5,0c4.4,0,8.8,0,13.3,0c1.6,0,3.2,0,4.8,0C84.1,14.9,84.1,15.9,84.1,16.8z"/>
	<path class="st0" d="M0,25.2c0.1,0,0.3,0,0.4,0c12.3,0,24.6,0,36.9,0c0.1,0,0.3,0,0.5,0c0,0.1,0,0.2,0,0.3c0,5.4,0,10.9,0,16.3
		c0,0.1,0,0.1,0,0.2c-0.9,0-1.9,0-2.8,0c0-0.1,0-0.3,0-0.4c0-4,0-8,0-11.9c0-0.1,0-0.2,0-0.4c-0.2,0.1-0.3,0.1-0.4,0.2
		c-6.2,3.1-12.5,6.2-18.7,9.3c-2.2,1.1-4.3,2.2-6.5,3.3c-1.1,0-2.1,0-3.2,0c0.1-0.1,0.2-0.2,0.4-0.2c9-4.5,18-9,27.1-13.5
		c0.1-0.1,0.3-0.1,0.4-0.2c0,0,0,0,0-0.1c-0.1,0-0.2,0-0.3,0c-1.8,0-3.5,0-5.3,0c-0.2,0-0.5,0.1-0.7,0.2
		c-7.1,3.6-14.3,7.1-21.4,10.7C4.2,40,2.1,41,0.1,42C0,41.9,0,41.8,0,41.7c0-1.5,0-2.9,0-4.4c0.1-0.1,0.2-0.1,0.3-0.2
		c5.9-3,11.9-6,17.8-8.9c0.1-0.1,0.2-0.1,0.3-0.2c0,0,0,0,0-0.1c-0.1,0-0.3,0-0.4,0c-5,0-9.9,0-14.9,0c-1.1,0-2.1,0-3.2,0
		C0,27.1,0,26.2,0,25.2z"/>
	<path class="st1" d="M35,0c0,4,0,8.1,0,12.1c0,0.2,0,0.4,0,0.7c-0.1-0.1-0.2-0.1-0.3-0.1C26.4,8.5,18,4.3,9.7,0.1
		C9.6,0.1,9.5,0,9.5,0C18,0,26.5,0,35,0z"/>
	<path class="st1" d="M74.6,0c-1.8,0.9-3.6,1.8-5.3,2.7C62.7,6,56,9.3,49.4,12.6c-0.1,0.1-0.2,0.1-0.4,0.2c0-4.3,0-8.5,0-12.8
		C57.6,0,66.1,0,74.6,0z"/>
	<path class="st1" d="M9.5,42c2.2-1.1,4.3-2.2,6.5-3.3c6.2-3.1,12.5-6.2,18.7-9.3c0.1-0.1,0.2-0.1,0.4-0.2c0,0.2,0,0.3,0,0.4
		c0,4,0,8,0,11.9c0,0.1,0,0.3,0,0.4C26.5,42,18,42,9.5,42z"/>
	<path class="st1" d="M49,42c0-4,0-8,0-12c0-0.2,0-0.5,0-0.7c0.1,0,0.2,0.1,0.3,0.1c8.4,4.2,16.7,8.4,25.1,12.6
		c0.1,0,0.1,0.1,0.2,0.1C66.1,42,57.6,42,49,42z"/>
	<path class="st1" d="M0,4.7c2,1,3.9,2,5.9,2.9c4.1,2.1,8.2,4.1,12.3,6.2c0.1,0,0.2,0.1,0.3,0.2c-0.1,0-0.2,0-0.4,0
		c-5.9,0-11.8,0-17.6,0c-0.2,0-0.3,0-0.5,0C0,10.9,0,7.8,0,4.7z"/>
	<path class="st1" d="M84.1,14c-1.6,0-3.2,0-4.8,0c-4.4,0-8.8,0-13.3,0c-0.1,0-0.2,0-0.5,0c0.2-0.1,0.3-0.2,0.4-0.2
		c5.9-3,11.8-5.9,17.8-8.9c0.1-0.1,0.3-0.1,0.4-0.2C84.1,7.8,84.1,10.9,84.1,14z"/>
	<path class="st1" d="M0,28c1.1,0,2.1,0,3.2,0c5,0,9.9,0,14.9,0c0.1,0,0.3,0,0.4,0c0,0,0,0,0,0.1c-0.1,0.1-0.2,0.1-0.3,0.2
		c-5.9,3-11.9,6-17.8,8.9c-0.1,0.1-0.2,0.1-0.3,0.2C0,34.2,0,31.1,0,28z"/>
	<path class="st1" d="M84.1,37.3c-1.6-0.8-3.1-1.6-4.7-2.4c-4.5-2.2-9-4.5-13.5-6.7c-0.1,0-0.2-0.1-0.3-0.2c0.1,0,0.2,0,0.3,0
		c5.9,0,11.8,0,17.6,0c0.2,0,0.3,0,0.5,0C84.1,31.1,84.1,34.2,84.1,37.3z"/>
	<g>
		<path class="st2" d="M46.2,42c-2.8,0-5.6,0-8.4,0c0-0.1,0-0.1,0-0.2c0-5.4,0-10.9,0-16.3c0-0.1,0-0.2,0-0.3c-0.2,0-0.3,0-0.5,0
			c-12.3,0-24.6,0-36.9,0c-0.1,0-0.3,0-0.4,0c0-2.8,0-5.6,0-8.4c0.1,0,0.2,0,0.2,0c12.4,0,24.8,0,37.2,0c0.1,0,0.2,0,0.3,0
			c0-0.2,0-0.3,0-0.4c0-5.4,0-10.7,0-16.1c0-0.1,0-0.2,0-0.3c2.8,0,5.6,0,8.4,0c0,0.1,0,0.1,0,0.2c0,5.4,0,10.9,0,16.3
			c0,0.1,0,0.2,0,0.3c0.2,0,0.3,0,0.5,0c12.3,0,24.6,0,36.9,0c0.1,0,0.3,0,0.4,0c0,2.8,0,5.6,0,8.4c-0.1,0-0.2,0-0.2,0
			c-12.4,0-24.8,0-37.2,0c-0.1,0-0.2,0-0.3,0c0,0.2,0,0.3,0,0.4c0,5.4,0,10.7,0,16.1C46.2,41.8,46.2,41.9,46.2,42z"/>
		<path class="st2" d="M84,0c-1.8,0.9-3.6,1.8-5.4,2.7c-7.4,3.7-14.8,7.4-22.2,11.1c-0.2,0.1-0.5,0.2-0.7,0.2c-1.8,0-3.5,0-5.3,0
			c-0.1,0-0.2,0-0.3,0c0,0,0,0,0-0.1c0.1-0.1,0.2-0.1,0.4-0.2c9-4.5,18.1-9,27.1-13.5c0.1-0.1,0.2-0.1,0.4-0.2C79.8,0,81.9,0,84,0z"
			/>
		<path class="st2" d="M0.1,42c2.1-1,4.1-2.1,6.2-3.1c7.1-3.6,14.3-7.1,21.4-10.7c0.2-0.1,0.5-0.2,0.7-0.2c1.8,0,3.5,0,5.3,0
			c0.1,0,0.2,0,0.3,0c0,0,0,0,0,0.1c-0.1,0.1-0.3,0.1-0.4,0.2c-9,4.5-18,9-27.1,13.5C6.5,41.9,6.4,42,6.3,42C4.2,42,2.1,42,0.1,42z"
			/>
		<path class="st2" d="M0.1,0c0.1,0.1,0.2,0.2,0.3,0.2c9,4.5,18.1,9,27.1,13.6c0.1,0.1,0.2,0.1,0.3,0.2c-0.1,0-0.2,0-0.3,0
			c-1.8,0-3.6,0-5.4,0c-0.2,0-0.5-0.1-0.7-0.2c-7-3.5-14-7-21-10.5C0.3,3.3,0.1,3.2,0,3.2c0-1,0-2,0-2.9C0,0.1,0,0.1,0.1,0z"/>
		<path class="st2" d="M84,42c-0.1-0.1-0.2-0.2-0.3-0.2c-9-4.5-18.1-9.1-27.1-13.6c-0.1,0-0.2-0.1-0.4-0.2c0.2,0,0.3,0,0.4,0
			c1.8,0,3.6,0,5.4,0c0.2,0,0.5,0.1,0.7,0.2c7,3.5,14,7,21,10.5c0.1,0.1,0.3,0.1,0.4,0.2c0,1,0,2,0,2.9C84.1,41.9,84,42,84,42z"/>
	</g>
</g>
</svg>
