<?xml version="1.0" encoding="utf-8"?>
<!-- Generator: Adobe Illustrator 18.1.0, SVG Export Plug-In . SVG Version: 6.00 Build 0)  -->
<svg version="1.1" id="Слой_1" xmlns="http://www.w3.org/2000/svg" xmlns:xlink="http://www.w3.org/1999/xlink" x="0px" y="0px"
	 viewBox="0 0 82 78.5" style="enable-background:new 0 0 82 78.5;" xml:space="preserve">
<style type="text/css">
	.st0{opacity:0.5;}
	.st1{opacity:0.51;}
	.st2{fill:#00FFFF;}
</style>
<g>
	<g class="st0">
		<path d="M50.5,21c1.3,0,2.5-1.1,2.5-2.4V2.2C53,0.9,52,0,50.7,0H3C2.4,0,1.7,0.2,1.1,0.6C0.5,1,0,1.7,0,2.4v64.2
			c0,1.1,0.8,2,1.8,2.3L33,78.4c0.2,0.1,0.5,0.1,0.7,0.1c0.5,0,0.9-0.2,1.4-0.5c0.6-0.5,0.9-1.2,0.9-1.9V69h14.7
			c1.3,0,2.3-1.4,2.3-2.8V51.1c0-1.3-1.2-2.4-2.5-2.4S48,49.8,48,51.1V64H36V11.9c0-1.1-0.6-1.8-1.6-2.1L18.2,5H48v13.5
			C48,19.9,49.2,21,50.5,21z"/>
	</g>
	<g class="st1">
		<g>
			<path class="st2" d="M80.2,36.7"/>
			<path class="st2" d="M80.2,31.8"/>
			<path d="M81.3,32.5L63.5,15.2c-1-0.9-2.5-0.9-3.4,0c-0.9,1-0.9,2.6,0,3.5L73.7,32H45.2c-1.3,0-2.4,1.2-2.4,2.5s1.1,2.5,2.4,2.5
				h28.5L60.1,49.9c-1,0.9-1,2.4,0,3.3c0.5,0.5,1.1,0.7,1.7,0.7c0.6,0,1.2-0.2,1.7-0.7L81.3,36c0.5-0.5,0.7-1.1,0.7-1.7
				C82,33.6,81.8,33,81.3,32.5z"/>
		</g>
	</g>
</g>
</svg>
