<?xml version="1.0" encoding="utf-8"?>
<!-- Generator: Adobe Illustrator 18.1.0, SVG Export Plug-In . SVG Version: 6.00 Build 0)  -->
<svg version="1.1" id="Слой_1" xmlns="http://www.w3.org/2000/svg" xmlns:xlink="http://www.w3.org/1999/xlink" x="0px" y="0px"
	 viewBox="0 0 697 1080" style="enable-background:new 0 0 697 1080;" xml:space="preserve">
<style type="text/css">
	.st0{opacity:0.5;}
	.st1{fill:#808080;}
	.st2{opacity:0.5;fill:#FFFFFF;}
</style>
<g id="_x33_" class="st0">
	<rect x="15.9" y="103.6" class="st1" width="681.1" height="57"/>
</g>
<path id="_x32_" class="st2" d="M697,103.6H15.9V8c0-4.4,3.6-8,8-8H697V103.6z"/>
<path class="st2" d="M16,161v313.1c0,2.1-0.8,4.2-2.3,5.7L2.4,491c-1.5,1.5-2.4,3.5-2.4,5.6v88.8c0,2.1,0.9,4.1,2.4,5.6l11.3,11.3
	c1.5,1.5,2.3,3.5,2.3,5.7v464c0,4.4,3.6,8,8,8h673V161H16z"/>
</svg>
